/* XPM */
static char *freeimage[] = {
/* width height num_colors chars_per_pixel */
"16 16 58 1",
/* colors */
"  c #ffffff",
". c #d4b078",
"X c #f5b043",
"o c #f4a830",
"O c #f5ad3e",
"+ c #dab479",
"@ c #f8c876",
"# c #f8c87e",
"$ c #f8c981",
"% c #f7c575",
"& c #f1b352",
"* c #e4ae59",
"= c #f0b04d",
"- c #fce9c6",
"; c #fad898",
": c #fad07f",
"> c #fad896",
", c #fbe5c2",
"< c #fbdca1",
"1 c #f7b943",
"2 c #fcf1de",
"3 c #fbe4b8",
"4 c #fcebce",
"5 c #f8b83f",
"6 c #f9d69e",
"7 c #f39a11",
"8 c #f8c77b",
"9 c #fad592",
"0 c #fad080",
"q c #fbe0ab",
"w c #fdf9f1",
"e c #fcf0d9",
"r c #fdf8ef",
"t c #d4ae74",
"y c #f39e19",
"u c #f9c86a",
"i c #fbe2b4",
"p c #f4a72a",
"a c #eea636",
"s c #f8c25a",
"d c #f7b335",
"f c #f8c56c",
"g c #f7bb5c",
"h c #f7bf65",
"j c #f7c16e",
"k c #f9c561",
"l c #fceed7",
"z c #fefefe",
"x c #f8c261",
"c c #fdf6e9",
"v c #f4a526",
"b c #f8ce8a",
"n c #d9b172",
"m c #fdf5e7",
"M c #f8bc47",
"N c #f5b044",
"B c #e3aa52",
"V c #f7c679",
/* pixels */
"     .XoOX.     ",
"   +OO@#$%&X+   ",
"  *=$-;::>,%X*  ",
" +&<;1:2345>6&+ ",
" 78;9<0qwer;>87 ",
"ty-ui2r:3wiwp-7.",
"a&>>;2isd<w,=$&O",
"yf9w9;;:u#@@ghj7",
"7%:<k@e3iiflhffy",
"a&;:ze@ssx2wj$&o",
"ty-#r-u5dxwcv,yt",
" 78;;9;55;43b87 ",
" n&<;@mM50N9;&+ ",
"  B=@-;#@9,#=*  ",
"   nO=f#VjNOn   ",
"     t=Xo&.     "
};
