/* XPM */
static char *freeimage[] = {
/* width height num_colors chars_per_pixel */
"32 32 26 1",
/* colors */
"  c #ffffff",
". c #f1c288",
"X c #faa846",
"o c #f9a33b",
"O c #f99b2b",
"+ c #f9aa4b",
"@ c #f8b96d",
"# c #f89825",
"$ c #fbb25b",
"% c #fbb057",
"& c #efd9be",
"* c #eddecb",
"= c #f1c897",
"- c #fbb665",
"; c #efe8df",
": c #f99e32",
"> c #f9a036",
", c #f2ece6",
"< c #fbfbfb",
"1 c #f2b871",
"2 c #f59624",
"3 c #f0b671",
"4 c #f89724",
"5 c #f9a643",
"6 c #edbf88",
"7 c #ebb777",
/* pixels */
"            .XoOOO+@            ",
"         .OO#X$o%%oO##.         ",
"        OO+@@XXOO%%$@$O#        ",
"      %#X@#O@&&**&=.oX@%#X      ",
"     oO-$X&;;;&&&&;;;=XOX:O     ",
"    oo-X=*;=-+XXXo>$=,;.X-Oo    ",
"   Xo@o=;&$oX=*=.@;@>X&;=X@#X   ",
"  .#-O&;=XXoX&<<<<<<.O#=,&o@#.  ",
"  ##o=;=X$@*@=&,<,;<<;&:@;.X##  ",
" 12#X;&X=<=*$=X&<<;=,<<.#&;X##@ ",
" #2#=,%@&&=,<,=.,<<<@,<,#O;=### ",
" 2#O;=+&&=<,<;.$-@;<<.,<%#=;o## ",
"32#.;$X@X,;,<.=-oo=<<,@<@#o;@##1",
"X2#=,X.<-,*<<+oXooo.;<;==##;=##X",
"#2#&&X,<=@,<@XXooooO--=.&##&&###",
"222*&$<<&-$+&;=;&=*&;O.X.##=;4##",
"22#;&X&,@X.=,&&&&&&=O$<=#=O=;###",
"22#&&X$@@@$-;&&&&=&&%;<&X=#&&###",
"522=,oX.<<,.==@@@@&@&<<,@=#;=##X",
"322.;$$,<<<<$XooOoOo&<,<.#o;@##1",
" 22#;=@,<<<,.XoooOo@<,,,X#.;O## ",
" 222&;X%&<;%=-oooo$@<;<*#O;&### ",
" 122X*&X@<@@.$Xooo=.;,<,#&*+##1 ",
"  22#=;.%=+,<&Xoo-,X@,&X@;=O##  ",
"  621+&;.XX;<,-Xo+=@=oO@,&#$o.  ",
"   521o&;&+-*;XXoo$=Oo=;&#--+   ",
"    OO@o=*,=$XXoooOX=;;=#$+O    ",
"     O2@2+&;;;&&&&;;;&Xo@$O     ",
"      52%%:X.&&;**&.o#o@oo      ",
"       62:@$%o:###o+$@##.       ",
"         72#>$%.X+@oo21         ",
"            75#22253            "
};
